<?xml version="1.0" encoding="UTF-8" standalone="no"?>
<svg width="20px" height="22px" viewBox="0 0 20 22" version="1.1" xmlns="http://www.w3.org/2000/svg" xmlns:xlink="http://www.w3.org/1999/xlink">
    <!-- Generator: sketchtool 3.8.1 (29687) - http://www.bohemiancoding.com/sketch -->
    <title>6953420A-CEEE-4D84-BD24-CCB3EA4160D2</title>
    <desc>Created with sketchtool.</desc>
    <defs></defs>
    <g id="Symbols" stroke="none" stroke-width="1" fill="none" fill-rule="evenodd">
        <g id="bottom-/-mail" transform="translate(-15.000000, -14.000000)" fill="#0170BC">
            <g id="icon-/-social-/-mail" transform="translate(15.000000, 14.000000)">
                <path d="M19.7207031,9.82324219 C19.645833,11.7773535 19.1591842,13.3346296 18.2607422,14.4951172 C17.3623002,15.6556048 16.1643955,16.2358398 14.6669922,16.2358398 C14.0530568,16.2358398 13.5102563,16.1029473 13.0385742,15.8371582 C12.5668922,15.5713691 12.2000339,15.1951522 11.9379883,14.7084961 C11.2042607,15.6967823 10.2197327,16.190918 8.984375,16.190918 C8.26562141,16.190918 7.63672145,15.9794129 7.09765625,15.5563965 C6.55859105,15.13338 6.16365685,14.532556 5.9128418,13.7539062 C5.66202674,12.9752565 5.58528597,12.0918018 5.68261719,11.1035156 C5.90722769,9.23176147 6.50992348,7.72689371 7.49072266,6.58886719 C8.47152183,5.45084066 9.67316997,4.88183594 11.0957031,4.88183594 C12.1962946,4.88183594 13.143388,5.13639068 13.9370117,5.64550781 L14.6445312,6.1171875 L14.0717773,12.7094727 C13.9444981,13.750168 14.3038695,14.2705078 15.1499023,14.2705078 C15.7862988,14.2705078 16.3197407,13.8643433 16.7502441,13.052002 C17.1807476,12.2396607 17.4184568,11.2008527 17.4633789,9.93554688 C17.5906582,7.43488333 17.0721901,5.50326202 15.907959,4.140625 C14.7437279,2.77798798 13.0385854,2.09667969 10.7924805,2.09667969 C9.3624603,2.09667969 8.09155829,2.46166627 6.97973633,3.19165039 C5.86791436,3.92163451 4.98820311,4.9548273 4.34057617,6.29125977 C3.69294924,7.62769223 3.32796265,9.14940553 3.24560547,10.8564453 C3.1258132,13.4769011 3.6498965,15.4815197 4.81787109,16.8703613 C5.98584568,18.2592029 7.73778129,18.9536133 10.0737305,18.9536133 C10.7026399,18.9536133 11.3689743,18.880616 12.0727539,18.7346191 C12.7765335,18.5886223 13.3492816,18.4182952 13.7910156,18.2236328 L14.206543,20.0878906 C13.749835,20.3873713 13.1340371,20.628824 12.3591309,20.8122559 C11.5842246,20.9956878 10.8074583,21.0874023 10.0288086,21.0874023 C7.98485306,21.0874023 6.2572499,20.6962116 4.84594727,19.9138184 C3.43464464,19.1314251 2.38460631,17.9728267 1.69580078,16.4379883 C1.00699525,14.9031499 0.700032178,13.0426542 0.774902344,10.8564453 C0.864746543,8.79002873 1.34203669,6.93889164 2.20678711,5.30297852 C3.07153753,3.66706539 4.25446841,2.40177856 5.75561523,1.50708008 C7.25676206,0.612381594 8.95067416,0.165039062 10.8374023,0.165039062 C12.7241305,0.165039062 14.3525322,0.556229812 15.7226562,1.33862305 C17.0927803,2.12101628 18.1222296,3.24592365 18.8110352,4.71337891 C19.4998407,6.18083416 19.8030603,7.88410489 19.7207031,9.82324219 L19.7207031,9.82324219 Z M8.49023437,11.1035156 C8.40787719,12.0768278 8.48461796,12.8124161 8.72045898,13.3103027 C8.95630001,13.8081893 9.3362604,14.0571289 9.86035156,14.0571289 C10.2122413,14.0571289 10.53605,13.8999039 10.8317871,13.5854492 C11.1275243,13.2709945 11.3727204,12.8217803 11.5673828,12.237793 L12.0166016,7.11669922 C11.7919911,7.05680309 11.559897,7.02685547 11.3203125,7.02685547 C10.4817666,7.02685547 9.83602115,7.35440753 9.38305664,8.00952148 C8.93009214,8.66463544 8.63248769,9.6959565 8.49023437,11.1035156 L8.49023437,11.1035156 Z" id="@"></path>
            </g>
        </g>
    </g>
</svg>