<?xml version="1.0" encoding="UTF-8" standalone="no"?>
<svg width="19px" height="16px" viewBox="0 0 19 16" version="1.1" xmlns="http://www.w3.org/2000/svg" xmlns:xlink="http://www.w3.org/1999/xlink">
    <!-- Generator: sketchtool 3.8.1 (29687) - http://www.bohemiancoding.com/sketch -->
    <title>464C1C67-8A5C-49D6-9252-47B4CDE771D6</title>
    <desc>Created with sketchtool.</desc>
    <defs></defs>
    <g id="Symbols" stroke="none" stroke-width="1" fill="none" fill-rule="evenodd">
        <g id="bottom-twitter" transform="translate(-15.000000, -16.000000)" fill="#32CCFE">
            <g id="icon-/-social-/-twitter" transform="translate(15.000000, 16.000000)">
                <path d="M18.5022416,2.10446112 C17.8355007,2.39184942 17.1112822,2.59876899 16.3640727,2.67923771 C17.1342733,2.21941644 17.7205454,1.49519794 17.9964382,0.633033064 C17.2837152,1.05836774 16.479028,1.36874709 15.6398542,1.52968454 C14.9616178,0.80546604 13.9959931,0.357140303 12.9269087,0.357140303 C10.8692085,0.357140303 9.21385194,2.0239924 9.21385194,4.07019705 C9.21385194,4.35758534 9.24833853,4.64497364 9.30581619,4.9208664 C6.22501369,4.75992895 3.47758161,3.28850089 1.64979207,1.03537667 C1.32791718,1.5871622 1.14398867,2.21941644 1.14398867,2.90914835 C1.14398867,4.1966479 1.79923398,5.33470554 2.79934524,6.00144638 C2.19008206,5.97845532 1.61530547,5.80602234 1.12099761,5.53012958 L1.12099761,5.5761117 C1.12099761,7.38091019 2.39700163,8.87532931 4.09834032,9.22019526 C3.78796097,9.30066398 3.45459055,9.34664611 3.12122013,9.34664611 C2.87981396,9.34664611 2.64990333,9.32365505 2.41999269,9.28916845 C2.89130949,10.7605965 4.25927777,11.829681 5.89164327,11.8641676 C4.61563925,12.8642788 3.01776034,13.4505509 1.28193505,13.4505509 C0.971555694,13.4505509 0.684167401,13.4390554 0.385283576,13.4045688 C2.02914461,14.4621577 3.983385,15.0714209 6.08706731,15.0714209 C12.9154132,15.0714209 16.651461,9.4156193 16.651461,4.50702725 C16.651461,4.34608981 16.651461,4.18515237 16.6399654,4.02421492 C17.3641839,3.49542046 17.9964382,2.84017515 18.5022416,2.10446112 L18.5022416,2.10446112 Z" id="icon"></path>
            </g>
        </g>
    </g>
</svg>