<?xml version="1.0" encoding="UTF-8" standalone="no"?>
<svg width="13px" height="17px" viewBox="0 0 13 17" version="1.1" xmlns="http://www.w3.org/2000/svg" xmlns:xlink="http://www.w3.org/1999/xlink">
    <!-- Generator: sketchtool 3.8.1 (29687) - http://www.bohemiancoding.com/sketch -->
    <title>83AF5F44-E914-4C91-BC45-20A84F03BC36</title>
    <desc>Created with sketchtool.</desc>
    <defs></defs>
    <g id="Symbols" stroke="none" stroke-width="1" fill="none" fill-rule="evenodd">
        <g id="bottom-/-vk" transform="translate(-19.000000, -16.000000)" fill="#4C75A3">
            <g id="icon-/-social-/-vk" transform="translate(19.000000, 16.000000)">
                <path d="M0.235351562,17 L0.235351562,0.6484375 L6.10888672,0.6484375 C8.21273838,0.6484375 9.81306418,1.03401307 10.9099121,1.80517578 C12.00676,2.57633849 12.5551758,3.69563068 12.5551758,5.16308594 C12.5551758,6.00911881 12.3605163,6.73160508 11.9711914,7.33056641 C11.5818665,7.92952773 11.0091184,8.37125509 10.2529297,8.65576172 C11.1064496,8.88037222 11.7615537,9.29963886 12.2182617,9.91357422 C12.6749697,10.5275096 12.9033203,11.2762 12.9033203,12.159668 C12.9033203,13.7618895 12.3960825,14.9654094 11.3815918,15.7702637 C10.367101,16.575118 8.86410501,16.985026 6.87255859,17 L0.235351562,17 Z M4.17724609,10.0483398 L4.17724609,13.9677734 L6.76025391,13.9677734 C7.47152048,13.9677734 8.0180645,13.8049333 8.39990234,13.479248 C8.78174019,13.1535628 8.97265625,12.6949899 8.97265625,12.1035156 C8.97265625,10.7408786 8.29509141,10.0558269 6.93994141,10.0483398 L4.17724609,10.0483398 Z M4.17724609,7.46533203 L6.23242188,7.46533203 C7.09342878,7.45784501 7.70735494,7.30062002 8.07421875,6.99365234 C8.44108256,6.68668466 8.62451172,6.23372695 8.62451172,5.63476562 C8.62451172,4.9459601 8.42610875,4.44995269 8.02929688,4.14672852 C7.632485,3.84350434 6.99235468,3.69189453 6.10888672,3.69189453 L4.17724609,3.69189453 L4.17724609,7.46533203 Z" id="В"></path>
            </g>
        </g>
    </g>
</svg>