<?xml version="1.0" encoding="UTF-8" standalone="no"?>
<svg width="29px" height="20px" viewBox="0 0 29 20" version="1.1" xmlns="http://www.w3.org/2000/svg" xmlns:xlink="http://www.w3.org/1999/xlink">
    <!-- Generator: sketchtool 3.8.1 (29687) - http://www.bohemiancoding.com/sketch -->
    <title>ADE05D5B-2330-4B2D-A40C-5B2E7BF4EE4D</title>
    <desc>Created with sketchtool.</desc>
    <defs></defs>
    <g id="Symbols" stroke="none" stroke-width="1" fill="none" fill-rule="evenodd">
        <g id="top-menu-line" transform="translate(-1053.000000, -30.000000)">
            <g id="icon-/-add-video" transform="translate(1053.000000, 30.000000)">
                <g id="Group" stroke-width="1" transform="translate(20.000000, 10.000000) rotate(-270.000000) translate(-20.000000, -10.000000) translate(10.000000, 1.000000)">
                    <rect id="Rectangle-9" fill="#0170BC" x="-1.65327318e-15" y="3.55271368e-15" width="20" height="18" rx="2"></rect>
                    <path d="M3,2 L5,2 L5,4 L3,4 L3,2 Z M7,2 L9,2 L9,4 L7,4 L7,2 Z M11,2 L13,2 L13,4 L11,4 L11,2 Z M15,2 L17,2 L17,4 L15,4 L15,2 Z" id="Combined-Shape" fill="#FFFFFF"></path>
                    <path d="M3,14 L5,14 L5,16 L3,16 L3,14 Z M7,14 L9,14 L9,16 L7,16 L7,14 Z M11,14 L13,14 L13,16 L11,16 L11,14 Z M15,14 L17,14 L17,16 L15,16 L15,14 Z" id="Combined-Shape-Copy" fill="#FFFFFF"></path>
                </g>
                <path d="M3,9 L0,9 L0,11 L3,11 L3,14 L5,14 L5,11 L8,11 L8,9 L5,9 L5,6 L3,6 L3,9 Z" id="Combined-Shape" fill="#0170BC"></path>
            </g>
        </g>
    </g>
</svg>