<?xml version="1.0" encoding="UTF-8" standalone="no"?>
<svg width="19px" height="19px" viewBox="0 0 19 19" version="1.1" xmlns="http://www.w3.org/2000/svg" xmlns:xlink="http://www.w3.org/1999/xlink">
    <!-- Generator: sketchtool 3.8.1 (29687) - http://www.bohemiancoding.com/sketch -->
    <title>E67EBCFA-2350-46E5-B6AA-D9FD9EBDF415</title>
    <desc>Created with sketchtool.</desc>
    <defs></defs>
    <g id="States">
        <path d="M8,13 L8,13 C10.7614237,13 13,10.7614237 13,8 C13,5.23857625 10.7614237,3 8,3 C5.23857625,3 3,5.23857625 3,8 C3,10.7614237 5.23857625,13 8,13 L8,13 Z M8,16 L8,16 C3.581722,16 0,12.418278 0,8 C0,3.581722 3.581722,0 8,0 C12.418278,0 16,3.581722 16,8 C16,12.418278 12.418278,16 8,16 L8,16 Z" id="Oval-2"></path>
        <path d="M12.4393398,14.5606602 L15.9620201,18.0833405 C16.5478065,18.6691269 17.497554,18.6691269 18.0833405,18.0833405 C18.6691269,17.497554 18.6691269,16.5478065 18.0833405,15.9620201 L14.5606602,12.4393398 C13.9748737,11.8535534 13.0251263,11.8535534 12.4393398,12.4393398 C11.8535534,13.0251263 11.8535534,13.9748737 12.4393398,14.5606602 L12.4393398,14.5606602 Z" id="Line"></path>
    </g>
</svg>
